<svg width="1200" height="324" viewBox="0 0 1200 324" fill="none" xmlns="http://www.w3.org/2000/svg">
<path fill-rule="evenodd" clip-rule="evenodd" d="M0 252H22C44 252 89 252 133 258C178 264 222 276 267 282C311 288 356 288 400 264C444 240 489 192 533 150C578 108 622 72 667 60C711 48 756 60 800 78C844 96 889 120 933 150C978 180 1022 216 1067 192C1111 168 1156 84 1178 42L1200 0V324H1178C1156 324 1111 324 1067 324C1022 324 978 324 933 324C889 324 844 324 800 324C756 324 711 324 667 324C622 324 578 324 533 324C489 324 444 324 400 324C356 324 311 324 267 324C222 324 178 324 133 324C89 324 44 324 22 324H0V252Z" fill="#0080FF" fill-opacity="0.04"/>
</svg>
