<svg width="1096" height="665" viewBox="0 0 1096 665" fill="none" xmlns="http://www.w3.org/2000/svg">
<g clip-path="url(#clip0)">
<path d="M1095.74 661H701V663H1095.74V661Z" fill="#88C4FF"/>
<path d="M474 429V216H718V0H0V643H718V429H474Z" fill="#88C4FF"/>
<path opacity="0.1" d="M718 216V0H469V213H249V0H0V216H225V429H0V643H476V429H474V216H718Z" fill="black"/>
<path d="M172 0C171.999 45.6169 153.877 89.3652 121.621 121.621C89.3652 153.877 45.6169 171.999 0 172V0H172Z" fill="#004B97"/>
<path opacity="0.1" d="M80 0C79.9991 21.217 71.5702 41.5648 56.5675 56.5675C41.5648 71.5702 21.217 79.999 0 80V124C32.8865 123.999 64.4257 110.934 87.68 87.68C110.934 64.4257 123.999 32.8865 124 0H80Z" fill="black"/>
<path d="M718 60V29H553V0H517V29V60V84V115H553H718V84H553V60H718Z" fill="#D0CDE1"/>
<path d="M429 331C429.003 315.449 424.528 300.226 416.112 287.149C407.695 274.072 395.692 263.694 381.536 257.256C367.381 250.817 351.671 248.589 336.283 250.839C320.895 253.088 306.48 259.72 294.76 269.942C283.04 280.163 274.51 293.542 270.189 308.481C265.868 323.42 265.939 339.287 270.394 354.187C274.848 369.087 283.497 382.389 295.308 392.506C307.119 402.622 321.593 409.125 337 411.236V525H204.236C201.449 504.662 191.043 486.141 175.122 473.182C159.202 460.222 138.955 453.791 118.474 455.188C97.9934 456.585 78.8071 465.706 64.7942 480.708C50.7812 495.709 42.9868 515.472 42.9868 536C42.9868 556.528 50.7812 576.291 64.7942 591.292C78.8071 606.294 97.9934 615.415 118.474 616.812C138.955 618.209 159.202 611.778 175.122 598.819C191.043 585.859 201.449 567.338 204.236 547H337V595H359V547H404V525H359V411.236C378.393 408.578 396.168 398.987 409.037 384.236C421.905 369.486 428.997 350.575 429 331V331Z" fill="#D0CDE1"/>
<path d="M626.5 445.263L662.508 507.631L698.517 570H626.5H554.483L590.492 507.631L626.5 445.263Z" fill="#D0CDE1"/>
<path d="M610.5 578H538.483L574.492 515.631L574.742 515.198L561.5 492.263L525.492 554.631L489.483 617H561.5H633.517L611 578H610.5Z" fill="#004B97"/>
<path d="M159 345V291H186V259H52V393H186V345H159Z" fill="#D0CDE1"/>
<path d="M139 234H89V284H139V234Z" fill="#004B97"/>
<path d="M937.032 239.849L920.488 283.572L860.824 304.507C860.824 304.507 824.824 300.507 824.824 320.507C824.824 334.688 867.824 322.507 867.824 322.507L946.486 298.935L971.302 237.485L937.032 239.849Z" fill="#FFB8B8"/>
<path d="M869 228H635V430H869V228Z" fill="#004B97"/>
<path d="M747.5 289.263L783.508 351.631L819.517 414H747.5H675.483L711.492 351.631L747.5 289.263Z" fill="#88C4FF"/>
<path d="M747.331 334.415L763.665 362.708L780 391H747.331H714.661L730.996 362.708L747.331 334.415Z" fill="#D0CDE1"/>
<path d="M747.331 242.415L763.665 270.708L780 299H747.331H714.661L730.996 270.708L747.331 242.415Z" fill="#D0CDE1"/>
<path d="M972.024 211.438C972.024 211.438 955.48 209.074 947.208 239.799C938.936 270.523 936.573 272.887 936.573 272.887C936.573 272.887 985.023 279.977 986.205 277.614C987.386 275.25 996.84 218.528 972.024 211.438Z" fill="#2F2E41"/>
<path d="M962.57 199.62C980.192 199.62 994.477 185.336 994.477 167.714C994.477 150.093 980.192 135.808 962.57 135.808C944.949 135.808 930.664 150.093 930.664 167.714C930.664 185.336 944.949 199.62 962.57 199.62Z" fill="#FFB8B8"/>
<path d="M948.39 193.712C948.39 193.712 959.025 220.891 955.48 224.436C951.935 227.981 999.203 232.708 999.203 232.708C999.203 232.708 1002.75 214.983 988.568 204.347C988.568 204.347 982.659 186.621 983.841 183.076C985.023 179.531 948.39 193.712 948.39 193.712Z" fill="#FFB8B8"/>
<path d="M976.751 205.529C964.638 210.103 953.726 217.378 944.845 226.8C930.664 242.162 923.574 246.889 923.574 246.889C923.574 246.889 907.03 252.798 912.938 281.159C915.893 295.339 913.825 311.293 911.018 323.701C906.731 342.956 904.6 362.629 904.666 382.356V394.603C904.666 394.603 795.948 622.674 832.582 638.037C869.215 653.399 902.303 658.126 904.666 654.581C907.03 651.036 949.571 466.688 949.571 466.688C949.571 466.688 961.389 664.034 990.931 664.034C1020.47 664.034 1068.92 655.762 1068.92 655.762L1008.66 419.419C1008.66 419.419 1022.84 379.241 987.386 350.88L982.659 337.881C1002.26 337.891 1011.23 213.811 990.931 203.166C990.931 203.166 986.205 199.62 976.751 205.529Z" fill="#2F2E41"/>
<path d="M947.208 269.341L930.664 313.065L871 334C871 334 835 330 835 350C835 364.18 878 352 878 352L956.662 328.427L981.478 266.978L947.208 269.341Z" fill="#FFB8B8"/>
<path d="M868.624 664.034C880.045 664.034 889.304 658.743 889.304 652.217C889.304 645.691 880.045 640.4 868.624 640.4C857.203 640.4 847.944 645.691 847.944 652.217C847.944 658.743 857.203 664.034 868.624 664.034Z" fill="#2F2E41"/>
<path d="M1026.97 664.034C1038.4 664.034 1047.65 658.743 1047.65 652.217C1047.65 645.691 1038.4 640.4 1026.97 640.4C1015.55 640.4 1006.29 645.691 1006.29 652.217C1006.29 658.743 1015.55 664.034 1026.97 664.034Z" fill="#2F2E41"/>
<path d="M974.887 122.971H974.887C973.245 122.975 971.606 123.138 969.995 123.458C967.084 122.045 963.89 121.309 960.655 121.305H959.807C943.462 121.305 930.212 136.095 930.212 154.34V154.34H935.689L936.573 147.608L937.87 154.34H942.432C941.013 159.742 940.301 165.305 940.313 170.89V204.514H948.594L953.388 192.056L952.189 204.514H1005.41L1009.77 193.189L1008.68 204.514H1014.67V178.113C1014.67 147.659 996.86 122.971 974.887 122.971Z" fill="#2F2E41"/>
</g>
<defs>
<clipPath id="clip0">
<rect width="1095.74" height="664.034" fill="white"/>
</clipPath>
</defs>
</svg>
