<svg width="986" height="662" viewBox="0 0 986 662" fill="none" xmlns="http://www.w3.org/2000/svg">
<g clip-path="url(#clip0)">
<path d="M956.525 640.305H27.5245V642.305H956.525V640.305Z" fill="#004B97"/>
<path d="M100.593 277.472L99.8138 279.314L955.456 641.138L956.235 639.296L100.593 277.472Z" fill="#004B97"/>
<path d="M956.525 277.305H27.5245V279.305H956.525V277.305Z" fill="#004B97"/>
<path d="M830.525 320.805C830.653 363.12 822.441 405.046 806.358 444.187C790.275 483.327 766.637 518.914 736.795 548.915C733.505 552.225 730.141 555.458 726.704 558.615C722.564 562.435 718.318 566.138 713.964 569.725C713.134 570.415 712.305 571.095 711.465 571.765C694.267 585.701 675.644 597.779 655.905 607.795C654.735 608.385 653.565 608.975 652.385 609.555C650.515 610.475 648.625 611.375 646.735 612.255C576.771 644.812 497.205 650.211 423.485 627.405C294.415 587.345 200.525 465.235 200.525 320.805C200.525 143.795 341.555 0.304932 515.525 0.304932C689.495 0.304932 830.525 143.795 830.525 320.805Z" fill="#88C4FF"/>
<path d="M585.659 253.571L585.909 253.562L584.923 251.396C583.815 248.328 582.461 245.354 580.873 242.504L551.939 178.974C551.015 176.947 549.52 175.233 547.636 174.043C545.752 172.853 543.562 172.239 541.335 172.276L504.691 172.886C502.322 172.926 500.023 173.7 498.112 175.102C496.202 176.504 494.773 178.464 494.025 180.713L470.989 249.901C470.23 251.838 469.572 253.813 469.018 255.819L468.236 258.168L468.42 258.161C466.285 267.285 466.287 276.779 468.424 285.902C470.561 295.026 474.777 303.533 480.742 310.759C486.707 317.986 494.261 323.737 502.814 327.565C511.367 331.393 520.689 333.194 530.052 332.827C539.416 332.461 548.568 329.937 556.795 325.452C565.023 320.967 572.104 314.643 577.486 306.972C582.868 299.301 586.406 290.491 587.823 281.228C589.241 271.966 588.5 262.501 585.659 253.571H585.659Z" fill="#F0F5FC"/>
<path d="M517.368 188.423L505.837 251.457L507.139 251.695L518.669 188.661L517.368 188.423Z" fill="#88C4FF"/>
<path d="M531.224 188.191L529.932 188.472L543.544 251.089L544.836 250.808L531.224 188.191Z" fill="#88C4FF"/>
<path d="M500.697 141.862L547.652 141.079C548.003 141.073 548.341 141.207 548.594 141.451C548.846 141.695 548.991 142.029 548.997 142.38C549.002 142.731 548.869 143.069 548.625 143.322C548.381 143.574 548.047 143.719 547.696 143.725L500.741 144.507C500.568 144.51 500.395 144.478 500.233 144.415C500.072 144.351 499.924 144.256 499.8 144.135C499.675 144.014 499.575 143.87 499.506 143.711C499.437 143.551 499.399 143.38 499.397 143.206C499.394 143.033 499.425 142.86 499.489 142.698C499.553 142.537 499.648 142.389 499.768 142.264C499.889 142.14 500.033 142.04 500.193 141.971C500.352 141.901 500.523 141.864 500.697 141.862V141.862Z" fill="#004B97"/>
<path d="M501.193 151.776L548.148 150.994C548.499 150.988 548.837 151.122 549.09 151.366C549.342 151.61 549.487 151.944 549.493 152.294C549.498 152.645 549.365 152.984 549.121 153.236C548.877 153.488 548.543 153.633 548.192 153.639L501.237 154.421C500.886 154.427 500.548 154.294 500.295 154.05C500.043 153.806 499.898 153.472 499.892 153.121C499.887 152.77 500.02 152.431 500.264 152.179C500.508 151.927 500.842 151.782 501.193 151.776Z" fill="#004B97"/>
<path d="M501.689 161.69L548.644 160.908C548.995 160.902 549.333 161.036 549.585 161.28C549.838 161.524 549.983 161.858 549.988 162.209C549.994 162.56 549.861 162.898 549.617 163.151C549.373 163.403 549.039 163.548 548.688 163.554L501.733 164.336C501.382 164.342 501.044 164.208 500.791 163.964C500.539 163.72 500.394 163.386 500.388 163.035C500.383 162.684 500.516 162.346 500.76 162.093C501.004 161.841 501.338 161.696 501.689 161.69V161.69Z" fill="#004B97"/>
<path d="M524.017 132.036C514.704 132.191 507.24 137.508 507.346 143.911L541.075 143.349C540.968 136.946 533.331 131.881 524.017 132.036Z" fill="#004B97"/>
<path d="M529.207 260.766C531.048 260.89 532.791 261.636 534.153 262.879C534.502 263.169 534.844 263.472 535.188 263.775C536.276 264.911 537.609 265.783 539.085 266.325C542.317 267.207 545.508 264.652 548.201 262.035L549.123 262.984C546.162 265.861 542.614 268.659 538.737 267.602C537.063 267.012 535.548 266.041 534.312 264.767C533.979 264.472 533.646 264.178 533.309 263.897C532.204 262.981 530.069 261.554 528.171 262.294C527.383 262.678 526.682 263.219 526.111 263.883C525.669 264.348 525.191 264.779 524.682 265.17C523.639 265.909 522.402 266.324 521.124 266.362C519.847 266.4 518.587 266.06 517.503 265.383C517.113 265.123 516.738 264.842 516.379 264.541C515.79 263.957 515.058 263.54 514.255 263.332C513.131 263.174 512.11 263.977 511.027 264.825C510.004 265.82 508.695 266.47 507.284 266.685C507.236 266.687 507.188 266.689 507.14 266.69C504.504 266.734 502.832 264.097 501.798 262.092L502.974 261.486C504.379 264.211 505.734 265.453 507.214 265.363C508.347 265.146 509.39 264.596 510.21 263.784C511.462 262.802 512.758 261.787 514.438 262.021C515.483 262.249 516.444 262.766 517.211 263.512C517.533 263.783 517.869 264.036 518.217 264.27C519.079 264.797 520.075 265.062 521.085 265.032C522.095 265.002 523.074 264.678 523.902 264.101C524.356 263.75 524.781 263.364 525.176 262.948C525.871 262.149 526.728 261.506 527.689 261.062C528.174 260.873 528.688 260.773 529.207 260.766V260.766Z" fill="#88C4FF"/>
<path d="M525.509 0H524.134V131.982H525.509V0Z" fill="#004B97"/>
<path d="M940.421 228.67C932.038 259.656 903.328 278.846 903.328 278.846C903.328 278.846 888.207 247.799 896.589 216.813C904.971 185.827 933.682 166.637 933.682 166.637C933.682 166.637 948.803 197.685 940.421 228.67Z" fill="#88C4FF"/>
<path d="M864.166 228.67C872.548 259.656 901.259 278.846 901.259 278.846C901.259 278.846 916.38 247.799 907.998 216.813C899.615 185.827 870.905 166.637 870.905 166.637C870.905 166.637 855.784 197.685 864.166 228.67Z" fill="#88C4FF"/>
<path d="M876.483 222.011C899.484 244.402 902.293 278.821 902.293 278.821C902.293 278.821 867.811 276.938 844.81 254.548C821.809 232.157 819 197.738 819 197.738C819 197.738 853.482 199.621 876.483 222.011Z" fill="#004B97"/>
<path d="M928.104 222.011C905.103 244.402 902.293 278.821 902.293 278.821C902.293 278.821 936.776 276.938 959.776 254.548C982.777 232.157 985.587 197.738 985.587 197.738C985.587 197.738 951.104 199.621 928.104 222.011Z" fill="#004B97"/>
<path d="M121.421 590.67C113.038 621.656 84.3276 640.846 84.3276 640.846C84.3276 640.846 69.2069 609.799 77.5891 578.813C85.9713 547.827 114.682 528.637 114.682 528.637C114.682 528.637 129.803 559.685 121.421 590.67Z" fill="#88C4FF"/>
<path d="M45.1661 590.67C53.5483 621.656 82.2591 640.846 82.2591 640.846C82.2591 640.846 97.3798 609.799 88.9976 578.813C80.6154 547.827 51.9046 528.637 51.9046 528.637C51.9046 528.637 36.7839 559.685 45.1661 590.67Z" fill="#88C4FF"/>
<path d="M57.4831 584.011C80.484 606.402 83.2934 640.821 83.2934 640.821C83.2934 640.821 48.811 638.938 25.8102 616.548C2.80937 594.157 0 559.738 0 559.738C0 559.738 34.4824 561.621 57.4831 584.011Z" fill="#004B97"/>
<path d="M109.104 584.011C86.1027 606.402 83.2933 640.821 83.2933 640.821C83.2933 640.821 117.776 638.938 140.776 616.548C163.777 594.157 166.587 559.738 166.587 559.738C166.587 559.738 132.104 561.621 109.104 584.011Z" fill="#004B97"/>
<path d="M670.342 304.423C680.965 304.423 689.576 295.812 689.576 285.189C689.576 274.566 680.965 265.954 670.342 265.954C659.719 265.954 651.108 274.566 651.108 285.189C651.108 295.812 659.719 304.423 670.342 304.423Z" fill="#2F2E41"/>
<path d="M649.734 276.945C649.734 272.201 651.488 267.625 654.658 264.096C657.828 260.566 662.191 258.333 666.907 257.825C664.221 257.531 661.503 257.807 658.931 258.634C656.359 259.461 653.989 260.821 651.978 262.625C649.966 264.429 648.357 266.637 647.255 269.104C646.154 271.572 645.584 274.243 645.584 276.945C645.584 279.648 646.154 282.319 647.255 284.787C648.357 287.254 649.966 289.462 651.978 291.266C653.989 293.07 656.359 294.429 658.931 295.257C661.503 296.084 664.221 296.36 666.907 296.066C662.191 295.558 657.828 293.325 654.658 289.795C651.488 286.266 649.734 281.689 649.734 276.945V276.945Z" fill="#2F2E41"/>
<path d="M651.108 285.189C651.108 285.189 648.12 298.928 666.788 304.423L651.108 285.189Z" fill="#88C4FF"/>
<path d="M678.297 415.838C713.959 415.838 742.87 386.928 742.87 351.265C742.87 315.603 713.959 286.693 678.297 286.693C642.635 286.693 613.724 315.603 613.724 351.265C613.724 386.928 642.635 415.838 678.297 415.838Z" fill="#2F2E41"/>
<path d="M713.964 569.725C713.134 570.415 712.304 571.095 711.464 571.765C694.267 585.701 675.644 597.778 655.904 607.795C654.734 608.385 653.565 608.975 652.385 609.555C650.515 610.475 648.624 611.375 646.734 612.255L613.635 601.225L614.015 593.295V593.265L615.455 563.025L615.945 552.685L713.964 569.725Z" fill="#A0616A"/>
<path d="M652.384 609.555C650.514 610.475 648.624 611.375 646.734 612.255C633.805 618.3 620.469 623.436 606.824 627.625C606.755 627.425 606.715 627.216 606.704 627.005L613.634 593.135L614.014 593.295L652.384 609.555Z" fill="#2F2E41"/>
<path d="M662.178 419.774C685.795 419.774 704.94 400.628 704.94 377.012C704.94 353.395 685.795 334.25 662.178 334.25C638.562 334.25 619.417 353.395 619.417 377.012C619.417 400.628 638.562 419.774 662.178 419.774Z" fill="#A0616A"/>
<path d="M696.85 379.323C696.85 379.323 703.784 413.995 716.497 422.085L645.998 505.297L619.417 479.871L639.064 445.199C639.064 445.199 661.023 432.487 654.088 415.151L696.85 379.323Z" fill="#A0616A"/>
<path d="M780.514 494.155C767.984 513.95 753.323 532.312 736.794 548.915C736.084 533.415 734.544 520.635 731.524 516.855C731.517 516.854 731.51 516.851 731.504 516.845L694.534 505.295C694.534 505.295 702.624 429.015 722.274 425.555C722.274 425.555 725.125 426.135 729.555 427.475C743.835 431.775 774.494 443.895 778.904 469.465C780.159 477.632 780.698 485.894 780.514 494.155V494.155Z" fill="#A0616A"/>
<path d="M639.064 445.199C639.064 445.199 604.392 444.044 582.434 471.781C560.475 499.518 507.312 520.322 507.312 520.322L374.403 572.329C374.403 572.329 350.133 529.567 335.109 544.592C320.084 559.616 362.846 597.755 382.493 593.132C402.141 588.509 521.18 552.682 521.18 552.682L615.949 509.92L639.064 445.199Z" fill="#A0616A"/>
<path d="M731.525 516.855L726.704 558.615C722.564 562.435 718.318 566.138 713.965 569.725C713.135 570.415 712.305 571.095 711.465 571.765C678.095 561.535 625.804 562.675 615.454 563.025C614.274 563.055 613.635 563.085 613.635 563.085L612.485 538.815C601.395 535.125 597.754 527.055 597.655 518.175C597.485 502.075 609.014 483.335 609.014 483.335C611.084 481.265 626.555 451.935 629.755 445.855C630.125 445.145 630.335 444.755 630.335 444.755L644.204 441.295C644.204 441.295 644.165 441.405 644.085 441.605C642.845 445.075 632.065 476.465 650.625 477.555C668.885 478.635 708.605 427.355 714.075 420.165C714.485 419.625 714.704 419.335 714.704 419.335L729.735 427.425C729.675 427.445 729.615 427.455 729.555 427.475C720.374 430.025 711.874 452.135 711.874 452.135C687.904 494.375 730.454 516.315 731.504 516.845C731.51 516.851 731.517 516.854 731.525 516.855Z" fill="#D0CDE1"/>
<path d="M664.502 326.818C641.738 326.818 623.285 337.583 623.285 350.861C623.285 356.803 626.994 362.233 633.117 366.428L641.052 360.678L638.894 369.685C639.789 370.1 640.703 370.502 641.657 370.873L653.51 357.044V374.033C657.145 374.615 660.82 374.907 664.501 374.904C687.265 374.904 705.718 364.14 705.718 350.861C705.718 337.583 687.265 326.818 664.502 326.818Z" fill="#2F2E41"/>
<path d="M748.931 334.472C759.554 334.472 768.166 325.86 768.166 315.238C768.166 304.615 759.554 296.003 748.931 296.003C738.308 296.003 729.697 304.615 729.697 315.238C729.697 325.86 738.308 334.472 748.931 334.472Z" fill="#2F2E41"/>
<path d="M728.323 306.994C728.324 302.25 730.077 297.674 733.247 294.145C736.417 290.615 740.78 288.382 745.497 287.874C744.812 287.799 744.124 287.761 743.436 287.76C740.821 287.756 738.232 288.286 735.829 289.316C733.425 290.347 731.257 291.857 729.457 293.753C727.656 295.65 726.262 297.894 725.358 300.348C724.455 302.802 724.061 305.415 724.201 308.026C724.342 310.638 725.013 313.193 726.174 315.536C727.336 317.879 728.963 319.961 730.956 321.654C732.949 323.347 735.266 324.616 737.766 325.383C740.267 326.15 742.897 326.399 745.497 326.115C740.78 325.607 736.417 323.373 733.247 319.844C730.077 316.315 728.324 311.738 728.323 306.994V306.994Z" fill="#2F2E41"/>
<path d="M729.697 315.238C729.697 315.238 726.71 328.976 745.377 334.472L729.697 315.238Z" fill="#88C4FF"/>
<path d="M706.674 381.057C708.518 381.057 710.013 377.694 710.013 373.545C710.013 369.396 708.518 366.032 706.674 366.032C704.83 366.032 703.335 369.396 703.335 373.545C703.335 377.694 704.83 381.057 706.674 381.057Z" fill="#A0616A"/>
<path d="M338.181 402.607L287.504 414.885L287.339 414.924L281.83 419.911L280.245 421.345L276.846 420.729L270.828 419.641L275.022 405.489L275.808 378.496L272.925 361.985L288.912 350.978C288.912 350.978 320.098 349.144 338.181 402.607Z" fill="#D0CDE1"/>
<path opacity="0.1" d="M287.504 414.885C286.818 416.35 288.256 415.383 287.47 416.89L280.132 419.248L276.846 420.729L270.828 419.641L275.022 405.489L275.808 378.496L272.925 361.985L288.912 350.978C288.912 350.978 306.069 375.278 287.504 414.885Z" fill="black"/>
<path d="M397.934 363.82C397.934 363.82 331.367 394.744 304.374 399.462C277.38 404.179 279.739 431.173 279.739 431.173L430.955 407.586C430.955 407.586 425.714 383.213 397.934 363.82Z" fill="#D0CDE1"/>
<path d="M269.518 358.578C269.518 358.578 281.049 386.62 268.208 421.476L283.146 428.29L288.912 421.476L289.043 420.821L273.187 419.379C273.187 419.379 286.291 384.261 275.546 359.889C275.546 359.889 273.187 354.647 269.518 358.578Z" fill="#88C4FF"/>
<path d="M489.398 566.402C430.431 553.299 375.527 580.423 375.527 580.423L375.377 580.29L353.513 560.768L268.077 421.345L288.911 421.476C346.83 386.882 428.335 391.599 428.335 391.599C463.452 431.435 489.398 566.402 489.398 566.402Z" fill="#004B97"/>
<path opacity="0.1" d="M375.377 580.29L353.513 560.768L268.077 421.345L288.911 421.476C288.911 421.476 371.952 531.151 375.377 580.29Z" fill="black"/>
<path d="M384.973 471.504C402.824 466.029 414.473 452.392 410.993 441.046C407.513 429.699 390.221 424.939 372.37 430.414C354.519 435.889 342.87 449.526 346.35 460.873C349.831 472.22 367.123 476.98 384.973 471.504Z" fill="#D0CDE1"/>
<path d="M27.7933 296.152C38.2867 296.152 46.7933 287.646 46.7933 277.152C46.7933 266.659 38.2867 258.152 27.7933 258.152C17.2999 258.152 8.79333 266.659 8.79333 277.152C8.79333 287.646 17.2999 296.152 27.7933 296.152Z" fill="#004B97"/>
<path d="M955.793 661.152C966.287 661.152 974.793 652.646 974.793 642.152C974.793 631.659 966.287 623.152 955.793 623.152C945.3 623.152 936.793 631.659 936.793 642.152C936.793 652.646 945.3 661.152 955.793 661.152Z" fill="#004B97"/>
<path d="M110.793 294.152C119.078 294.152 125.793 287.437 125.793 279.152C125.793 270.868 119.078 264.152 110.793 264.152C102.509 264.152 95.7933 270.868 95.7933 279.152C95.7933 287.437 102.509 294.152 110.793 294.152Z" fill="#88C4FF"/>
<path d="M955.793 294.152C964.078 294.152 970.793 287.437 970.793 279.152C970.793 270.868 964.078 264.152 955.793 264.152C947.509 264.152 940.793 270.868 940.793 279.152C940.793 287.437 947.509 294.152 955.793 294.152Z" fill="#88C4FF"/>
<path d="M27.7933 655.152C36.0776 655.152 42.7933 648.437 42.7933 640.152C42.7933 631.868 36.0776 625.152 27.7933 625.152C19.5091 625.152 12.7933 631.868 12.7933 640.152C12.7933 648.437 19.5091 655.152 27.7933 655.152Z" fill="#88C4FF"/>
</g>
<defs>
<clipPath id="clip0">
<rect width="985.587" height="661.152" fill="white"/>
</clipPath>
</defs>
</svg>
