<svg width="1078" height="753" viewBox="0 0 1078 753" fill="none" xmlns="http://www.w3.org/2000/svg">
<g clip-path="url(#clip0)">
<path d="M455 704.861C706.29 704.861 910 694.564 910 681.861C910 669.159 706.29 658.861 455 658.861C203.71 658.861 0 669.159 0 681.861C0 694.564 203.71 704.861 455 704.861Z" fill="#004B97"/>
<path d="M899.338 730C997.669 730 1077.38 725.971 1077.38 721C1077.38 716.029 997.669 712 899.338 712C801.008 712 721.295 716.029 721.295 721C721.295 725.971 801.008 730 899.338 730Z" fill="#004B97"/>
<path d="M396.056 752.861C494.386 752.861 574.099 748.832 574.099 743.861C574.099 738.891 494.386 734.861 396.056 734.861C297.725 734.861 218.012 738.891 218.012 743.861C218.012 748.832 297.725 752.861 396.056 752.861Z" fill="#004B97"/>
<path d="M833.082 473.432L849.057 462.328L882.166 419.71C883.11 418.495 883.533 416.954 883.341 415.427C883.15 413.9 882.359 412.512 881.144 411.568V411.568C879.928 410.623 878.388 410.201 876.861 410.393C875.334 410.584 873.945 411.375 873.001 412.59L839.892 455.208L833.082 473.432Z" fill="#2F2E41"/>
<path d="M975.678 68.2879C975.678 68.2879 955.587 50.2754 928.568 84.2221C901.55 118.169 859.289 134.796 849.59 147.959C849.59 147.959 889.772 131.332 903.628 124.404C917.484 117.476 916.791 118.862 916.791 118.862C916.791 118.862 898.086 132.025 894.622 145.188C891.158 158.351 893.929 169.435 887.694 182.598C881.459 195.761 1006.85 191.605 1006.85 191.605C1006.85 191.605 1019.32 170.128 1015.86 147.959C1012.4 125.79 1014.47 71.0591 975.678 68.2879Z" fill="#2F2E41"/>
<path d="M936.189 121.633C936.189 121.633 941.039 155.58 920.255 163.2C899.471 170.821 907.092 181.213 907.092 181.213L938.267 196.454L971.521 186.062L982.606 169.435C982.606 169.435 964.594 165.279 969.443 152.808C974.293 140.338 975.678 136.181 975.678 136.181L936.189 121.633Z" fill="#FFB9B9"/>
<path opacity="0.1" d="M936.189 121.633C936.189 121.633 941.039 155.58 920.255 163.2C899.471 170.821 907.092 181.213 907.092 181.213L938.267 196.454L971.521 186.062L982.606 169.435C982.606 169.435 964.594 165.279 969.443 152.808C974.293 140.338 975.678 136.181 975.678 136.181L936.189 121.633Z" fill="black"/>
<path d="M1023.48 218.624C1023.48 218.624 1018.63 282.36 1020.02 285.131C1021.4 287.903 1020.02 384.201 1020.02 384.201C1020.02 384.201 1029.72 436.16 1017.25 438.931C1004.78 441.702 1007.55 380.737 1007.55 380.737L995.076 300.373L996.462 220.702L1023.48 218.624Z" fill="#FFB9B9"/>
<path opacity="0.1" d="M1023.48 218.624C1023.48 218.624 1018.63 282.36 1020.02 285.131C1021.4 287.903 1020.02 384.201 1020.02 384.201C1020.02 384.201 1029.72 436.16 1017.25 438.931C1004.78 441.702 1007.55 380.737 1007.55 380.737L995.076 300.373L996.462 220.702L1023.48 218.624Z" fill="black"/>
<path d="M888.386 410.527C888.386 410.527 865.524 497.125 866.217 539.386C866.91 581.646 875.916 640.533 875.916 640.533C875.916 640.533 877.302 666.166 875.223 668.938C873.145 671.709 885.615 683.486 885.615 683.486L898.778 675.866L903.628 670.323V665.474C903.628 665.474 896.007 641.919 902.242 623.213C908.477 604.508 911.941 557.398 905.706 542.85L948.659 415.376L888.386 410.527Z" fill="#FFB9B9"/>
<path d="M887.001 672.402C887.001 672.402 878.687 662.01 873.145 665.474C867.603 668.938 858.597 692.493 858.597 692.493C858.597 692.493 827.421 722.283 849.59 723.668C871.76 725.054 881.459 717.433 884.23 711.891C887.001 706.348 912.634 691.8 912.634 691.8C912.634 691.8 909.863 665.474 905.706 664.781C901.55 664.088 895.314 675.173 895.314 675.173L887.001 672.402Z" fill="#2F2E41"/>
<path d="M963.901 416.069V501.975C963.981 512.399 964.675 522.809 965.979 533.151C968.057 548.392 954.202 662.01 954.202 662.01L955.587 682.101L972.907 680.715L974.985 663.395L999.926 587.188C999.926 587.188 1008.24 540.771 1004.08 523.452C999.926 506.132 1025.56 395.285 1025.56 395.285L963.901 416.069Z" fill="#FFB9B9"/>
<path d="M950.045 677.251L955.176 676.136C955.176 676.136 959.051 667.552 963.901 669.63C967.313 671.204 970.546 673.142 973.544 675.408L975.678 679.329C975.678 679.329 980.528 689.721 986.763 696.649C992.998 703.577 999.926 718.819 989.534 720.204C979.142 721.59 965.286 722.283 961.129 718.819C956.973 715.355 959.744 709.812 955.587 708.427C951.43 707.041 947.966 702.884 948.659 701.499C949.352 700.113 950.045 677.251 950.045 677.251Z" fill="#2F2E41"/>
<path d="M963.901 147.959C982.266 147.959 997.155 133.071 997.155 114.705C997.155 96.3392 982.266 81.4509 963.901 81.4509C945.535 81.4509 930.647 96.3392 930.647 114.705C930.647 133.071 945.535 147.959 963.901 147.959Z" fill="#FFB9B9"/>
<path d="M905.706 168.743L914.857 165.548C914.857 165.548 911.249 171.514 930.647 174.978C950.045 178.442 970.134 179.668 979.141 168.317C979.141 168.317 982.606 166.664 987.456 171.514C992.305 176.363 995.076 174.978 995.076 174.978L991.612 192.99L984.684 226.244L975.678 251.185L950.045 245.643L922.333 225.552L911.941 198.533V173.592L905.706 168.743Z" fill="#88C4FF"/>
<path d="M990.227 178.442L997.155 173.592C997.155 173.592 1020.71 177.749 1022.1 188.834L1004.08 223.473C1007.76 233.112 1007.51 243.806 1003.39 253.263C996.462 269.197 997.155 272.661 997.155 272.661L992.305 293.445L904.321 300.373C904.321 300.373 900.857 292.059 899.471 290.674C898.086 289.288 898.085 284.439 899.471 284.439C900.857 284.439 899.471 282.36 898.086 280.282C896.7 278.204 896.007 277.511 898.086 274.74C900.164 271.968 894.622 247.028 894.622 247.028V220.009L871.067 188.834C871.067 188.834 879.38 176.363 883.537 174.978C887.694 173.592 907.467 168.128 907.467 168.128L911.941 174.716L918.176 224.859L927.183 255.341L965.104 248.898L979.835 224.166L989.534 195.069L990.227 178.442Z" fill="#88C4FF"/>
<path d="M1016.55 184.677L1022.1 188.833C1022.1 188.833 1026.94 227.63 1025.56 230.401C1024.17 233.172 999.926 235.943 999.233 234.558C998.54 233.172 1016.55 184.677 1016.55 184.677Z" fill="#88C4FF"/>
<path d="M866.217 226.937C866.217 226.937 871.067 290.674 869.681 293.445C868.296 296.216 869.681 392.514 869.681 392.514C869.681 392.514 859.982 444.473 872.452 447.245C884.923 450.016 882.152 389.05 882.152 389.05L894.622 308.686L893.236 229.015L866.217 226.937Z" fill="#FFB9B9"/>
<path d="M902.242 165.279L909.17 211.003C909.17 211.003 902.935 278.896 904.321 292.752L905.706 296.909C905.706 296.909 902.935 295.523 902.242 298.295C901.549 301.066 902.242 310.072 902.242 310.072C902.242 310.072 898.085 314.229 896.7 337.091C895.314 359.953 878.687 414.683 884.922 416.762C891.158 418.84 928.568 429.232 948.659 427.154C968.75 425.075 1040.8 400.828 1040.11 394.593C1039.41 388.357 1004.78 300.373 1004.78 300.373C1004.78 300.373 998.54 289.981 998.54 288.596C998.54 287.21 1006.85 281.668 1004.78 276.125C1002.7 270.583 991.612 212.389 991.612 212.389L999.233 170.821L988.841 168.05L981.22 208.232C981.22 208.232 951.43 222.78 920.255 209.617L913.327 162.508L902.242 165.279Z" fill="#2F2E41"/>
<path d="M876.609 186.755L871.067 188.833C871.067 188.833 860.675 232.479 863.446 232.479C866.217 232.479 899.471 236.636 899.471 235.25C899.471 233.865 893.236 199.918 893.236 199.918L876.609 186.755Z" fill="#88C4FF"/>
<path d="M937.575 85.6077C937.575 85.6077 988.841 120.94 1002.7 105.006C1016.55 89.0716 978.449 75.2158 978.449 75.2158L946.581 71.7518L937.575 85.6077Z" fill="#2F2E41"/>
<path d="M139.613 0V676H720.613V0H139.613ZM170.613 620C168.635 620 166.701 619.414 165.057 618.315C163.412 617.216 162.131 615.654 161.374 613.827C160.617 612 160.419 609.989 160.805 608.049C161.191 606.109 162.143 604.327 163.542 602.929C164.94 601.53 166.722 600.578 168.662 600.192C170.602 599.806 172.612 600.004 174.44 600.761C176.267 601.518 177.829 602.8 178.927 604.444C180.026 606.089 180.613 608.022 180.613 610C180.613 612.652 179.559 615.196 177.684 617.071C175.808 618.946 173.265 620 170.613 620V620ZM170.613 571C168.635 571 166.701 570.414 165.057 569.315C163.412 568.216 162.131 566.654 161.374 564.827C160.617 563 160.419 560.989 160.805 559.049C161.191 557.109 162.143 555.327 163.542 553.929C164.94 552.53 166.722 551.578 168.662 551.192C170.602 550.806 172.612 551.004 174.44 551.761C176.267 552.518 177.829 553.8 178.927 555.444C180.026 557.089 180.613 559.022 180.613 561C180.613 563.652 179.559 566.196 177.684 568.071C175.808 569.946 173.265 571 170.613 571ZM170.613 523C168.635 523 166.701 522.414 165.057 521.315C163.412 520.216 162.131 518.654 161.374 516.827C160.617 515 160.419 512.989 160.805 511.049C161.191 509.109 162.143 507.327 163.542 505.929C164.94 504.53 166.722 503.578 168.662 503.192C170.602 502.806 172.612 503.004 174.44 503.761C176.267 504.518 177.829 505.8 178.927 507.444C180.026 509.089 180.613 511.022 180.613 513C180.613 515.652 179.559 518.196 177.684 520.071C175.808 521.946 173.265 523 170.613 523ZM170.613 474C168.635 474 166.701 473.413 165.057 472.315C163.412 471.216 162.131 469.654 161.374 467.827C160.617 466 160.419 463.989 160.805 462.049C161.191 460.109 162.143 458.327 163.542 456.929C164.94 455.53 166.722 454.578 168.662 454.192C170.602 453.806 172.612 454.004 174.44 454.761C176.267 455.518 177.829 456.8 178.927 458.444C180.026 460.089 180.613 462.022 180.613 464C180.613 466.652 179.559 469.196 177.684 471.071C175.808 472.946 173.265 474 170.613 474ZM170.613 425C168.635 425 166.701 424.414 165.057 423.315C163.412 422.216 162.131 420.654 161.374 418.827C160.617 417 160.419 414.989 160.805 413.049C161.191 411.109 162.143 409.327 163.542 407.929C164.94 406.53 166.722 405.578 168.662 405.192C170.602 404.806 172.612 405.004 174.44 405.761C176.267 406.518 177.829 407.8 178.927 409.444C180.026 411.089 180.613 413.022 180.613 415C180.613 417.652 179.559 420.196 177.684 422.071C175.808 423.946 173.265 425 170.613 425V425ZM170.613 377C168.635 377 166.701 376.414 165.057 375.315C163.412 374.216 162.131 372.654 161.374 370.827C160.617 369 160.419 366.989 160.805 365.049C161.191 363.109 162.143 361.327 163.542 359.929C164.94 358.53 166.722 357.578 168.662 357.192C170.602 356.806 172.612 357.004 174.44 357.761C176.267 358.518 177.829 359.8 178.927 361.444C180.026 363.089 180.613 365.022 180.613 367C180.613 369.652 179.559 372.196 177.684 374.071C175.808 375.946 173.265 377 170.613 377V377ZM170.613 328C168.635 328 166.701 327.414 165.057 326.315C163.412 325.216 162.131 323.654 161.374 321.827C160.617 320 160.419 317.989 160.805 316.049C161.191 314.109 162.143 312.327 163.542 310.929C164.94 309.53 166.722 308.578 168.662 308.192C170.602 307.806 172.612 308.004 174.44 308.761C176.267 309.518 177.829 310.8 178.927 312.444C180.026 314.089 180.613 316.022 180.613 318C180.613 320.652 179.559 323.196 177.684 325.071C175.808 326.946 173.265 328 170.613 328V328ZM170.613 279C168.635 279 166.701 278.414 165.057 277.315C163.412 276.216 162.131 274.654 161.374 272.827C160.617 271 160.419 268.989 160.805 267.049C161.191 265.109 162.143 263.327 163.542 261.929C164.94 260.53 166.722 259.578 168.662 259.192C170.602 258.806 172.612 259.004 174.44 259.761C176.267 260.518 177.829 261.8 178.927 263.444C180.026 265.089 180.613 267.022 180.613 269C180.613 271.652 179.559 274.196 177.684 276.071C175.808 277.946 173.265 279 170.613 279V279ZM170.613 231C168.635 231 166.701 230.414 165.057 229.315C163.412 228.216 162.131 226.654 161.374 224.827C160.617 223 160.419 220.989 160.805 219.049C161.191 217.109 162.143 215.327 163.542 213.929C164.94 212.53 166.722 211.578 168.662 211.192C170.602 210.806 172.612 211.004 174.44 211.761C176.267 212.518 177.829 213.8 178.927 215.444C180.026 217.089 180.613 219.022 180.613 221C180.613 223.652 179.559 226.196 177.684 228.071C175.808 229.946 173.265 231 170.613 231V231ZM170.613 182C168.635 182 166.701 181.414 165.057 180.315C163.412 179.216 162.131 177.654 161.374 175.827C160.617 174 160.419 171.989 160.805 170.049C161.191 168.109 162.143 166.327 163.542 164.929C164.94 163.53 166.722 162.578 168.662 162.192C170.602 161.806 172.612 162.004 174.44 162.761C176.267 163.518 177.829 164.8 178.927 166.444C180.026 168.089 180.613 170.022 180.613 172C180.613 174.652 179.559 177.196 177.684 179.071C175.808 180.946 173.265 182 170.613 182ZM170.613 133C168.635 133 166.701 132.414 165.057 131.315C163.412 130.216 162.131 128.654 161.374 126.827C160.617 125 160.419 122.989 160.805 121.049C161.191 119.109 162.143 117.327 163.542 115.929C164.94 114.53 166.722 113.578 168.662 113.192C170.602 112.806 172.612 113.004 174.44 113.761C176.267 114.518 177.829 115.8 178.927 117.444C180.026 119.089 180.613 121.022 180.613 123C180.613 125.652 179.559 128.196 177.684 130.071C175.808 131.946 173.265 133 170.613 133V133ZM170.613 86C168.635 86 166.701 85.4135 165.057 84.3147C163.412 83.2159 162.131 81.6541 161.374 79.8268C160.617 77.9996 160.419 75.9889 160.805 74.0491C161.191 72.1093 162.143 70.3275 163.542 68.9289C164.94 67.5304 166.722 66.578 168.662 66.1921C170.602 65.8063 172.612 66.0043 174.44 66.7612C176.267 67.5181 177.829 68.7998 178.927 70.4443C180.026 72.0888 180.613 74.0222 180.613 76C180.613 78.6522 179.559 81.1957 177.684 83.0711C175.808 84.9464 173.265 86 170.613 86Z" fill="#F2F2F2"/>
<path opacity="0.3" d="M720.613 51.338V49.338H208.369V0H206.369V49.338H139.613V51.338H206.369V98H139.613V100H206.369V146.662H139.613V148.662H206.369V195.323H139.613V197.323H206.369V243.984H139.613V245.984H206.369V292.646H139.613V294.646H206.369V341.307H139.613V343.307H206.369V389.969H139.613V391.969H206.369V438.63H139.613V440.63H206.369V487.291H139.613V489.291H206.369V535.953H139.613V537.953H206.369V584.614H139.613V586.614H206.369V633.275H139.613V635.275H206.369V676H208.369V635.275H720.613V633.275H208.369V586.614H720.613V584.614H208.369V537.953H720.613V535.953H208.369V489.291H720.613V487.291H208.369V440.63H720.613V438.63H208.369V391.969H720.613V389.969H208.369V343.307H720.613V341.307H208.369V294.646H720.613V292.646H208.369V245.984H720.613V243.984H208.369V197.323H720.613V195.323H208.369V148.662H720.613V146.662H208.369V100H720.613V98H208.369V51.338H720.613Z" fill="#004B97"/>
<path d="M269.399 173.179C263.357 177.859 256.866 181.927 250.021 185.325C245.597 187.521 240.689 189.475 235.837 188.554C230.985 187.633 226.628 182.675 228.11 177.964C228.624 176.589 229.49 175.372 230.623 174.438C231.755 173.503 233.113 172.882 234.56 172.638C237.473 172.19 240.453 172.62 243.121 173.873C248.004 175.965 252.08 179.582 254.739 184.182C256.094 186.543 257.157 189.25 259.408 190.781C261.222 191.811 263.253 192.399 265.337 192.497C270.241 193.11 275.273 193.717 280.077 192.557C284.882 191.398 289.484 188.074 290.71 183.287" stroke="#004B97" stroke-width="2" stroke-miterlimit="10"/>
<path d="M306.463 150.364C306.843 165.051 306.637 179.738 305.847 194.425L316.269 192.456C320.11 191.73 324.481 190.621 326.217 187.118C327.835 183.852 326.295 179.73 323.6 177.275C320.906 174.821 317.315 173.649 313.842 172.544L308.152 170.733" stroke="#004B97" stroke-width="2" stroke-miterlimit="10"/>
<path d="M362.637 166.556C358.832 166.029 354.949 165.524 351.168 166.202C347.387 166.879 343.656 168.938 341.913 172.361C338.693 178.684 343.626 186.471 349.878 189.826C355.082 192.598 361.079 193.5 366.869 192.384" stroke="#004B97" stroke-width="2" stroke-miterlimit="10"/>
<path d="M278.967 116.252C269.397 125.249 259.828 125.249 250.259 116.252C246.377 112.526 243.297 108.047 241.208 103.088C239.12 98.13 238.066 92.7971 238.113 87.4169V0H291.113V87.4169C291.159 92.7971 290.106 98.13 288.017 103.088C285.929 108.047 282.849 112.526 278.967 116.252V116.252Z" fill="#88C4FF"/>
<path d="M575.313 426.73C575.313 508.56 526.673 537.13 466.663 537.13C465.273 537.13 463.883 537.11 462.503 537.08C459.723 537.02 456.963 536.89 454.243 536.7C400.083 532.87 358.013 502.83 358.013 426.73C358.013 347.99 458.633 248.62 466.213 241.25C466.213 241.249 466.213 241.247 466.213 241.246C466.214 241.245 466.215 241.244 466.216 241.243C466.217 241.242 466.218 241.241 466.219 241.241C466.22 241.24 466.221 241.24 466.223 241.24C466.513 240.95 466.663 240.81 466.663 240.81C466.663 240.81 575.313 344.91 575.313 426.73Z" fill="#88C4FF"/>
<path d="M462.703 524.61L502.443 469.09L462.603 530.71L462.503 537.08C459.723 537.02 456.963 536.89 454.243 536.7L458.523 454.84L458.493 454.2L458.563 454.09L458.973 446.35L419.033 384.58L459.093 440.55L459.193 442.19L462.423 380.34L428.233 316.51L462.843 369.49L466.213 241.25L466.223 240.81V241.24L465.663 342.36L499.703 302.27L465.523 351.07L464.623 406.45L496.413 353.3L464.493 414.6L463.993 445.39L510.123 371.41L463.813 456.13L462.703 524.61Z" fill="#004B97"/>
</g>
<defs>
<clipPath id="clip0">
<rect width="1077.38" height="752.861" fill="white"/>
</clipPath>
</defs>
</svg>
